<?xml version="1.0" encoding="utf-8"?>
<!-- Generator: Adobe Illustrator 19.1.1, SVG Export Plug-In . SVG Version: 6.00 Build 0)  -->
<svg version="1.1" id="Layer_1" xmlns="http://www.w3.org/2000/svg" xmlns:xlink="http://www.w3.org/1999/xlink" x="0px" y="0px"
	 viewBox="-273 399.7 47.6 43.2" style="enable-background:new -273 399.7 47.6 43.2;" xml:space="preserve">
<style type="text/css">
	.st0{fill:#606599;}
</style>
<g>
	<g>
		<path class="st0" d="M-241.2,426.4v1.4c-0.5,0.1-1,0.2-1.5,0.5c-0.7,0.4-1.2,1.3-1.2,2.2s0.6,1.7,1.3,2.1c0.7,0.4,1.4,0.6,2,0.8
			s1.2,0.3,1.5,0.6c0.4,0.2,0.4,0.3,0.4,0.6c0,0.5-0.1,0.6-0.4,0.7c-0.3,0.1-0.8,0.3-1.4,0.3c-0.4,0-0.8-0.2-1.2-0.4
			c-0.3-0.2-0.6-0.6-0.6-0.7l-1.6,0.6c0.2,0.6,0.7,1.2,1.3,1.6c0.4,0.3,0.8,0.5,1.3,0.6v1.5h1.8v-1.4c0.5-0.1,1-0.2,1.5-0.5
			c0.7-0.4,1.2-1.3,1.2-2.2s-0.6-1.7-1.3-2.1c-0.7-0.4-1.4-0.6-2-0.8s-1.2-0.4-1.5-0.6c-0.3-0.2-0.4-0.3-0.4-0.6
			c0-0.5,0.1-0.6,0.4-0.7c0.3-0.2,0.8-0.3,1.4-0.3c0.4,0,0.8,0.2,1.2,0.4c0.3,0.2,0.6,0.6,0.6,0.7l1.6-0.6c-0.2-0.6-0.7-1.2-1.3-1.6
			c-0.4-0.3-0.8-0.5-1.3-0.6v-1.5H-241.2z"/>
	</g>
	<g>
		<g>
			<path class="st0" d="M-247.1,438h-11.7c-0.5,0-1-0.4-1-1v-32.3c0-0.5,0.4-1,1-1h19.2c0.5,0,1,0.4,1,1v17.8c0,0.5-0.4,1-1,1
				c-0.6,0-1-0.4-1-1v-16.8h-17.3v30.4h10.7c0.5,0,1,0.4,1,1S-246.6,438-247.1,438z"/>
		</g>
		<g>
			<path class="st0" d="M-244.6,415.7h-9.2c-0.5,0-1-0.4-1-1s0.4-1,1-1h9.2c0.5,0,1,0.4,1,1S-244.1,415.7-244.6,415.7z"/>
		</g>
		<g>
			<path class="st0" d="M-244.6,420h-9.2c-0.5,0-1-0.4-1-1s0.4-1,1-1h9.2c0.5,0,1,0.4,1,1S-244.1,420-244.6,420z"/>
		</g>
		<g>
			<path class="st0" d="M-244.6,411.5h-9.2c-0.5,0-1-0.4-1-1s0.4-1,1-1h9.2c0.5,0,1,0.4,1,1S-244.1,411.5-244.6,411.5z"/>
		</g>
		<g>
			<path class="st0" d="M-244.6,424.2h-9.2c-0.5,0-1-0.4-1-1s0.4-1,1-1h9.2c0.5,0,1,0.4,1,1S-244.1,424.2-244.6,424.2z"/>
		</g>
	</g>
	<g>
		<g>
			<path class="st0" d="M-234.3,416.1c-1.2,0-1.9-0.9-2.1-1.7s0.1-1.9,1.2-2.3c0.1-1.6,1.5-2.5,2.7-2.5c0.7,0,1.4,0.3,1.9,0.8
				c0.3-0.2,0.6-0.2,0.9-0.2c0.5,0,1.1,0.3,1.4,0.7c0.3,0.3,0.4,0.8,0.4,1.2c1.3,0.1,1.9,1.1,1.9,2.1c0,0.5-0.2,1-0.5,1.4
				c-0.4,0.4-0.9,0.6-1.5,0.6L-234.3,416.1L-234.3,416.1z M-232.5,410c-1.1,0-2.2,0.8-2.3,2.2c0,0.1-0.1,0.2-0.1,0.2
				c-0.9,0.4-1.1,1.2-1,1.9c0.1,0.6,0.6,1.4,1.6,1.4h6.2c1.1,0,1.6-0.8,1.6-1.6s-0.5-1.7-1.7-1.6c-0.1,0-0.1,0-0.2-0.1
				s-0.1-0.1,0-0.2c0.1-0.4,0-0.8-0.2-1.1c-0.3-0.3-0.6-0.5-1.1-0.5c-0.3,0-0.5,0.1-0.8,0.3c-0.1,0.1-0.2,0.1-0.3,0
				C-231.3,410.3-231.9,410-232.5,410z"/>
			<path class="st0" d="M-228,416.7h-6.8v-0.1c-1.1-0.2-1.9-1.1-2.1-2c-0.2-1,0.1-2.2,1.2-2.8c0.3-1.7,1.8-2.7,3.2-2.7
				c0.7,0,1.4,0.3,2,0.7c0.3-0.1,0.6-0.1,0.8-0.1c0.7,0,1.4,0.4,1.8,0.9c0.3,0.3,0.4,0.7,0.5,1.1c1.3,0.3,1.9,1.4,1.9,2.5
				c0,0.6-0.2,1.2-0.6,1.7C-226.6,416.4-227.3,416.7-228,416.7z M-232.5,410.5c-0.8,0-1.7,0.6-1.8,1.7c0,0.2-0.2,0.5-0.2,0.5
				l-0.2,0.1c-0.7,0.3-0.8,0.9-0.7,1.4c0,0,0.2,1,1.1,1h6.2c1,0,1.1-0.9,1.1-1.1c0-0.4-0.1-0.7-0.3-0.9c-0.2-0.2-0.5-0.3-0.8-0.2
				l0,0c-0.3,0-0.4-0.1-0.6-0.2c-0.1-0.1-0.2-0.2-0.2-0.5c0-0.1,0.1-0.2,0.1-0.3c0-0.2,0-0.4-0.2-0.6c-0.2-0.2-0.4-0.3-0.7-0.3
				c-0.1,0-0.2,0-0.5,0.2c-0.2,0.2-0.6,0.2-0.9-0.1C-231.6,410.7-232,410.5-232.5,410.5z"/>
		</g>
		<g>
			<path class="st0" d="M-270.2,432c-1.2,0-1.9-0.9-2.1-1.7c-0.2-0.8,0.1-1.9,1.2-2.3c0.1-1.6,1.5-2.5,2.7-2.5
				c0.7,0,1.4,0.3,1.9,0.8c0.3-0.2,0.6-0.2,0.9-0.2c0.5,0,1.1,0.3,1.4,0.7c0.3,0.3,0.4,0.8,0.4,1.2c1.3,0.1,1.9,1.1,1.9,2.1
				c0,0.5-0.2,1-0.5,1.4c-0.4,0.4-0.9,0.6-1.5,0.6L-270.2,432L-270.2,432L-270.2,432z M-268.4,425.9c-1.1,0-2.2,0.8-2.3,2.2
				c0,0.1-0.1,0.2-0.1,0.2c-0.9,0.4-1.1,1.2-1,1.9c0.1,0.6,0.6,1.4,1.6,1.4h6.2c1.1,0,1.6-0.8,1.6-1.6s-0.5-1.7-1.7-1.6
				c-0.1,0-0.1,0-0.2-0.1c-0.1-0.1-0.1-0.1,0-0.2c0.1-0.4,0-0.8-0.2-1.1c-0.3-0.3-0.6-0.5-1.1-0.5c-0.3,0-0.5,0.1-0.8,0.3
				c-0.1,0.1-0.2,0.1-0.3,0C-267.2,426.2-267.7,425.9-268.4,425.9z"/>
			<path class="st0" d="M-263.9,432.6h-6.8v-0.1c-1.1-0.2-1.9-1.1-2.1-2c-0.2-1,0.1-2.2,1.2-2.8c0.3-1.7,1.8-2.7,3.2-2.7
				c0.7,0,1.4,0.3,2,0.7c0.3-0.1,0.6-0.1,0.8-0.1c0.7,0,1.4,0.4,1.8,0.9c0.3,0.3,0.4,0.7,0.5,1.1c1.3,0.3,1.9,1.4,1.9,2.5
				c0,0.6-0.2,1.2-0.6,1.7C-262.5,432.3-263.2,432.6-263.9,432.6z M-268.4,426.4c-0.8,0-1.7,0.6-1.8,1.7c0,0.2-0.2,0.5-0.2,0.5
				l-0.2,0.1c-0.7,0.3-0.8,0.9-0.7,1.4c0,0,0.2,1,1.1,1h6.2c1,0,1.1-0.9,1.1-1.1c0-0.4-0.1-0.7-0.3-0.9s-0.5-0.3-0.8-0.2
				c-0.3,0-0.4-0.1-0.6-0.2c-0.1-0.1-0.2-0.2-0.2-0.5c0-0.1,0.1-0.2,0.1-0.3c0-0.2,0-0.4-0.1-0.6c-0.2-0.2-0.4-0.3-0.7-0.3
				c-0.1,0-0.2,0-0.5,0.2c-0.1,0.1-0.3,0.2-0.4,0.2c-0.1,0-0.3,0-0.5-0.2C-267.5,426.6-267.9,426.4-268.4,426.4z"/>
		</g>
	</g>
</g>
</svg>
